:SAMPLES-PER-SECOND 30
:FULLY-SPECIFIED
:DEGREES
21
root  35.08675943 36.51580811 -14.87678167 9.836009026 1.155723691 3.083084106
lowerback  -8.571629524 0.5511369705 2.080930471
upperback  -3.919199944 0.2554929852 -2.381059885
thorax  0.7698130012 -0.0654098019 -3.612799883
lowerneck  -16.86459923 1.851209998 1.402009964
upperneck  14.80290031 1.375409961 3.62609005
head  7.308489799 1.033419967 1.105660081
lclavicle  0 -4.497500157e-015 -2.743230041e-014
lhumerus  -43.66690063 24.64089966 72.16130066
lradius  -0.04780896381 -6.507048965e-006 28.11590004
lwrist  4.824992743e-007 -3.790274832e-007 -29.28170013
lhand  -4.419251534e-031 -36.96220016 -10.73719978
lfingers  90 7.125020027 -90
lthumb  94.8585364 -25.56964636 101.1413065
rclavicle  0 -4.497500157e-015 -2.743230041e-014
rhumerus  -42.63629913 -21.64310074 -70.87470245
rradius  -5.16745672e-007 2.214343908e-008 51.49129868
rwrist  1.380293725e-006 2.528095422e-007 -156.4259949
rhand  -1.767442291e-031 -2.642750025 -7.515810013
rfingers  -90 -7.125020027 -90
rthumb  -86.51304418 -8.132058446 -66.69525287
rfemur  -13.37955856 14.7463665 13.44975662
rtibia  -1.142323732 0.8151084781 21.68918991
rfoot  -0.928411603 -18.84142113 -39.94023132
rtoes  4.054804013 19.6011542 -101.9316119
lfemur  -11.07336903 -17.27481461 -18.38449478
ltibia  1.333911896 1.097916007 16.48397255
lfoot  0.4751807451 -28.50552368 33.65423965
ltoes  -8.68841211 -18.08421533 -116.210643
22
root  35.08418526 36.51194535 -14.86935353 9.874938011 1.188587308 3.049600363
lowerback  -8.537219048 0.5354670286 2.033539772
upperback  -3.921910048 0.2385739982 -2.391940117
thorax  0.7466070056 -0.07391729951 -3.598690033
lowerneck  -16.80699921 1.861520052 1.401049972
upperneck  14.71829987 1.392879963 3.639039993
head  7.270530224 1.041839957 1.104585648
lclavicle  0 -4.497500157e-015 -2.743230041e-014
lhumerus  -43.68579865 24.67219925 72.13790131
lradius  -0.04857355729 -6.507048965e-006 28.09879875
lwrist  4.824992743e-007 -3.790274832e-007 -29.33270073
lhand  -4.417546339e-031 -36.93280029 -10.67510033
lfingers  90 7.125020027 -90
lthumb  94.83143811 -25.50973836 101.1040897
rclavicle  0 -4.497500157e-015 -2.743230041e-014
rhumerus  -41.86719894 -20.97500038 -71.34770203
rradius  -5.16745672e-007 2.214343908e-008 52.47589874
rwrist  1.380293725e-006 2.528095422e-007 -157.2230072
rhand  -1.767698182e-031 -2.816720009 -7.444779873
rfingers  -90 -7.125020027 -90
rthumb  -86.51689632 -8.188429453 -66.8607049
rfemur  -13.36868 14.68641472 13.46758366
rtibia  -1.121420979 0.7813504934 21.59291077
rfoot  -0.9005191326 -18.88808632 -39.94380188
rtoes  4.053312101 19.60145113 -101.9271647
lfemur  -11.17053413 -17.31436729 -18.30540276
ltibia  1.284817576 1.097944975 16.57873344
lfoot  0.4782168567 -28.53104401 33.64204788
ltoes  -8.683989937 -18.08628413 -116.1963978
23
root  35.0804006 36.51097816 -14.87634614 9.962174416 1.211363792 2.977371931
lowerback  -8.625739098 0.4925020933 1.902469635
upperback  -3.863509893 0.1946039945 -2.374480009
thorax  0.8520240188 -0.09040589631 -3.510710001
lowerneck  -16.74419975 1.880869985 1.391080022
upperneck  14.62209988 1.431139946 3.627439976
head  7.227620125 1.057680011 1.105980992
lclavicle  0 -4.497500157e-015 -2.743230041e-014
lhumerus  -43.70029831 24.73110008 72.14309692
lradius  -0.04933606833 -6.507048965e-006 28.09830093
lwrist  4.824992743e-007 -3.790274832e-007 -29.34000015
lhand  -4.417598518e-031 -36.93370056 -10.70590019
lfingers  90 7.125020027 -90
lthumb  94.83841487 -25.53999318 101.1078154
rclavicle  0 -4.497500157e-015 -2.743230041e-014
rhumerus  -41.00149918 -20.37950134 -71.78900146
rradius  -5.16745672e-007 2.214343908e-008 53.32379913
rwrist  1.380293725e-006 2.528095422e-007 -158.5749969
rhand  -1.767715598e-031 -2.828170061 -7.425320148
rfingers  -90 -7.125020027 -90
rthumb  -86.51129294 -8.205743465 -66.87077314
rfemur  -13.49652004 14.63428688 13.5251255
rtibia  -1.126171708 0.8024094701 21.58260727
rfoot  -0.8829485178 -18.84135246 -39.91553497
rtoes  4.077286091 19.59666582 -101.9986358
lfemur  -11.48697948 -17.35839462 -18.07072258
ltibia  1.102570891 1.133964181 16.87671661
lfoot  0.5083607435 -28.7125988 33.67897797
ltoes  -8.701418428 -18.078123 -116.2525497
24
root  35.08331419 36.5115008 -14.87292342 9.904535294 1.124185324 3.010973454
lowerback  -8.688579559 0.5210659504 1.900440097
upperback  -3.887779951 0.228174001 -2.351300001
thorax  0.8640069962 -0.07505840063 -3.482500076
lowerneck  -16.73999977 1.883380055 1.379230022
upperneck  14.60949993 1.436980009 3.635090113
head  7.222519875 1.060459971 1.108618259
lclavicle  0 -4.497500157e-015 -2.743230041e-014
lhumerus  -43.70460129 24.8022995 72.12069702
lradius  -0.05009648949 -6.507048965e-006 28.06399727
lwrist  4.824992743e-007 -3.790274832e-007 -29.36849785
lhand  -0 -36.98429871 -10.71220016
lfingers  90 7.125020027 -90
lthumb  94.8635401 -25.54429634 101.1626114
rclavicle  0 -4.497500157e-015 -2.743230041e-014
rhumerus  -40.14849854 -19.48749924 -72.270401
rradius  -5.16745672e-007 2.214343908e-008 54.48139954
rwrist  1.380293725e-006 2.528095422e-007 -159.4250031
rhand  -1.767643932e-031 -2.780750036 -7.426239967
rfingers  -90 -7.125020027 -90
rthumb  -86.50287629 -8.207292591 -66.8246215
rfemur  -13.41479778 14.657691 13.49354744
rtibia  -1.124595523 0.7600563765 21.55062294
rfoot  -0.8759541512 -18.90192795 -39.9031868
rtoes  4.077712132 19.59658051 -101.9999061
lfemur  -11.33198738 -17.3309536 -18.18608475
ltibia  1.185367942 1.108785748 16.76652527
lfoot  0.52647686 -28.63459206 33.73287201
ltoes  -8.718934875 -18.06989996 -116.3090097
